<svg width="103" height="51" viewBox="0 0 103 51" fill="none" xmlns="http://www.w3.org/2000/svg">
<path d="M19.04 14.57V18.525H12.53V39H7.63V18.525H1.12V14.57H19.04ZM31.3652 39L25.9752 29.48H23.6652V39H18.7652V14.57H27.9352C29.8252 14.57 31.4352 14.9083 32.7652 15.585C34.0952 16.2383 35.0869 17.1367 35.7402 18.28C36.4169 19.4 36.7552 20.66 36.7552 22.06C36.7552 23.67 36.2885 25.1283 35.3552 26.435C34.4219 27.7183 33.0335 28.605 31.1902 29.095L37.0352 39H31.3652ZM23.6652 25.805H27.7602C29.0902 25.805 30.0819 25.49 30.7352 24.86C31.3885 24.2067 31.7152 23.3083 31.7152 22.165C31.7152 21.045 31.3885 20.1817 30.7352 19.575C30.0819 18.945 29.0902 18.63 27.7602 18.63H23.6652V25.805ZM42.2371 14.57V39H37.3371V14.57H42.2371ZM51.6633 39.245C49.9599 39.245 48.4199 38.9533 47.0433 38.37C45.6899 37.7867 44.6166 36.9467 43.8233 35.85C43.0299 34.7533 42.6216 33.4583 42.5983 31.965H47.8483C47.9183 32.9683 48.2683 33.7617 48.8983 34.345C49.5516 34.9283 50.4383 35.22 51.5583 35.22C52.7016 35.22 53.5999 34.9517 54.2533 34.415C54.9066 33.855 55.2333 33.1317 55.2333 32.245C55.2333 31.5217 55.0116 30.9267 54.5683 30.46C54.1249 29.9933 53.5649 29.6317 52.8883 29.375C52.2349 29.095 51.3249 28.7917 50.1583 28.465C48.5716 27.9983 47.2766 27.5433 46.2733 27.1C45.2933 26.6333 44.4416 25.945 43.7183 25.035C43.0183 24.1017 42.6683 22.865 42.6683 21.325C42.6683 19.8783 43.0299 18.6183 43.7533 17.545C44.4766 16.4717 45.4916 15.655 46.7983 15.095C48.1049 14.5117 49.5983 14.22 51.2783 14.22C53.7983 14.22 55.8399 14.8383 57.4033 16.075C58.99 17.2883 59.865 18.9917 60.0283 21.185H54.6383C54.5916 20.345 54.2299 19.6567 53.5533 19.12C52.8999 18.56 52.0249 18.28 50.9283 18.28C49.9716 18.28 49.2016 18.525 48.6183 19.015C48.0583 19.505 47.7783 20.2167 47.7783 21.15C47.7783 21.8033 47.9883 22.3517 48.4083 22.795C48.8516 23.215 49.3883 23.565 50.0183 23.845C50.6716 24.1017 51.5816 24.405 52.7483 24.755C54.3349 25.2217 55.6299 25.6883 56.6333 26.155C57.6366 26.6217 58.4999 27.3217 59.2233 28.255C59.9466 29.1883 60.3083 30.4133 60.3083 31.93C60.3083 33.2367 59.9699 34.45 59.2933 35.57C58.6166 36.69 57.6249 37.5883 56.3183 38.265C55.0116 38.9183 53.4599 39.245 51.6633 39.245ZM77.3314 14.57V18.525H70.8214V39H65.9214V18.525H59.4114V14.57H77.3314ZM88.3966 39.245C86.1099 39.245 84.0099 38.7083 82.0966 37.635C80.1833 36.5617 78.6666 35.08 77.5466 33.19C76.4266 31.2767 75.8666 29.1183 75.8666 26.715C75.8666 24.335 76.4266 22.2 77.5466 20.31C78.6666 18.3967 80.1833 16.9033 82.0966 15.83C84.0099 14.7567 86.1099 14.22 88.3966 14.22C90.7066 14.22 92.8066 14.7567 94.6966 15.83C96.6099 16.9033 98.1149 18.3967 99.2116 20.31C100.332 22.2 100.892 24.335 100.892 26.715C100.892 29.1183 100.332 31.2767 99.2116 33.19C98.1149 35.08 96.6099 36.5617 94.6966 37.635C92.7833 38.7083 90.6833 39.245 88.3966 39.245ZM88.3966 34.87C89.8666 34.87 91.1616 34.5433 92.2816 33.89C93.4016 33.2133 94.2766 32.2567 94.9066 31.02C95.5366 29.7833 95.8516 28.3483 95.8516 26.715C95.8516 25.0817 95.5366 23.6583 94.9066 22.445C94.2766 21.2083 93.4016 20.2633 92.2816 19.61C91.1616 18.9567 89.8666 18.63 88.3966 18.63C86.9266 18.63 85.6199 18.9567 84.4766 19.61C83.3566 20.2633 82.4816 21.2083 81.8516 22.445C81.2216 23.6583 80.9066 25.0817 80.9066 26.715C80.9066 28.3483 81.2216 29.7833 81.8516 31.02C82.4816 32.2567 83.3566 33.2133 84.4766 33.89C85.6199 34.5433 86.9266 34.87 88.3966 34.87Z" fill="#DFE9FF"/>
<path d="M83.564 23.8663C83.557 23.2077 83.7421 22.6987 84.1192 22.3393C84.505 21.9802 85.0011 21.8113 85.6074 21.8324C86.2137 21.8535 86.7094 22.057 87.0944 22.443C87.4881 22.8292 87.6885 23.3516 87.6955 24.0103C87.7025 24.6775 87.5132 25.1907 87.1274 25.5498C86.7502 25.9092 86.2585 26.0783 85.6522 26.0572C85.0459 26.036 84.5459 25.8324 84.1522 25.4461C83.7671 25.0602 83.5711 24.5336 83.564 23.8663ZM91.8842 22.207L86.8749 31.1286L85.1079 31.0671L90.1043 22.145L91.8842 22.207ZM85.606 22.9239C85.1296 22.9073 84.895 23.237 84.9022 23.9129C84.9094 24.5976 85.1512 24.9482 85.6276 24.9648C85.8615 24.9729 86.0425 24.8969 86.1707 24.7368C86.2988 24.568 86.361 24.3103 86.3573 23.9636C86.3501 23.2877 86.0997 22.9411 85.606 22.9239ZM89.3225 29.2517C89.3155 28.5844 89.5005 28.0754 89.8778 27.7247C90.2636 27.3657 90.7596 27.1967 91.3659 27.2178C91.9722 27.2389 92.4636 27.4423 92.84 27.8279C93.2249 28.2052 93.421 28.7275 93.428 29.3948C93.4351 30.0621 93.2501 30.5754 92.8729 30.9348C92.5044 31.2944 92.0171 31.4637 91.4108 31.4426C90.7958 31.4212 90.2958 31.2175 89.9107 30.8316C89.5257 30.4456 89.3296 29.919 89.3225 29.2517ZM91.3645 28.3093C90.8708 28.2921 90.6276 28.6215 90.6347 29.2975C90.642 29.9821 90.8925 30.333 91.3862 30.3502C91.8712 30.3671 92.1101 30.0332 92.1028 29.3486C92.0957 28.6726 91.8496 28.3262 91.3645 28.3093Z" fill="#DFE9FF"/>
<path d="M100 6L76.4998 48.0002" stroke="#DFE9FF" stroke-width="2.3"/>
</svg>
