<svg width="619" height="315" viewBox="0 0 619 315" fill="none" xmlns="http://www.w3.org/2000/svg">
<path d="M114.24 84.42L114.24 108.15L75.18 108.15L75.18 231L45.78 231L45.78 108.15L6.72 108.15L6.72 84.42L114.24 84.42ZM188.191 231L155.851 173.88L141.991 173.88L141.991 231L112.591 231L112.591 84.42L167.611 84.42C178.951 84.42 188.611 86.45 196.591 90.51C204.571 94.43 210.521 99.82 214.441 106.68C218.501 113.4 220.531 120.96 220.531 129.36C220.531 139.02 217.731 147.77 212.131 155.61C206.531 163.31 198.201 168.63 187.141 171.57L222.211 231L188.191 231ZM141.991 151.83L166.561 151.83C174.541 151.83 180.491 149.94 184.411 146.16C188.331 142.24 190.291 136.85 190.291 129.99C190.291 123.27 188.331 118.09 184.411 114.45C180.491 110.67 174.541 108.78 166.561 108.78L141.991 108.78L141.991 151.83ZM253.422 84.42L253.422 231L224.022 231L224.022 84.42L253.422 84.42ZM309.98 232.47C299.76 232.47 290.52 230.72 282.26 227.22C274.14 223.72 267.7 218.68 262.94 212.1C258.18 205.52 255.73 197.75 255.59 188.79L287.09 188.79C287.51 194.81 289.61 199.57 293.39 203.07C297.31 206.57 302.63 208.32 309.35 208.32C316.21 208.32 321.6 206.71 325.52 203.49C329.44 200.13 331.4 195.79 331.4 190.47C331.4 186.13 330.07 182.56 327.41 179.76C324.75 176.96 321.39 174.79 317.33 173.25C313.41 171.57 307.95 169.75 300.95 167.79C291.43 164.99 283.66 162.26 277.64 159.6C271.76 156.8 266.65 152.67 262.31 147.21C258.11 141.61 256.01 134.19 256.01 124.95C256.01 116.27 258.18 108.71 262.52 102.27C266.86 95.83 272.95 90.93 280.79 87.57C288.63 84.07 297.59 82.32 307.67 82.32C322.79 82.32 335.04 86.03 344.42 93.45C353.94 100.73 359.19 110.95 360.17 124.11L327.83 124.11C327.55 119.07 325.38 114.94 321.32 111.72C317.4 108.36 312.15 106.68 305.57 106.68C299.83 106.68 295.21 108.15 291.71 111.09C288.35 114.03 286.67 118.3 286.67 123.9C286.67 127.82 287.93 131.11 290.45 133.77C293.11 136.29 296.33 138.39 300.11 140.07C304.03 141.61 309.49 143.43 316.49 145.53C326.01 148.33 333.78 151.13 339.8 153.93C345.82 156.73 351 160.93 355.34 166.53C359.68 172.13 361.85 179.48 361.85 188.58C361.85 196.42 359.82 203.7 355.76 210.42C351.7 217.14 345.75 222.53 337.91 226.59C330.07 230.51 320.76 232.47 309.98 232.47ZM463.988 84.42L463.988 108.15L424.928 108.15L424.928 231L395.528 231L395.528 108.15L356.468 108.15L356.468 84.42L463.988 84.42ZM530.38 232.47C516.66 232.47 504.06 229.25 492.58 222.81C481.1 216.37 472 207.48 465.28 196.14C458.56 184.66 455.2 171.71 455.2 157.29C455.2 143.01 458.56 130.2 465.28 118.86C472 107.38 481.1 98.42 492.58 91.98C504.06 85.54 516.66 82.32 530.38 82.32C544.24 82.32 556.84 85.54 568.18 91.98C579.66 98.42 588.69 107.38 595.27 118.86C601.99 130.2 605.35 143.01 605.35 157.29C605.35 171.71 601.99 184.66 595.27 196.14C588.69 207.48 579.66 216.37 568.18 222.81C556.7 229.25 544.1 232.47 530.38 232.47ZM530.38 206.22C539.2 206.22 546.97 204.26 553.69 200.34C560.41 196.28 565.66 190.54 569.44 183.12C573.22 175.7 575.11 167.09 575.11 157.29C575.11 147.49 573.22 138.95 569.44 131.67C565.66 124.25 560.41 118.58 553.69 114.66C546.97 110.74 539.2 108.78 530.38 108.78C521.56 108.78 513.72 110.74 506.86 114.66C500.14 118.58 494.89 124.25 491.11 131.67C487.33 138.95 485.44 147.49 485.44 157.29C485.44 167.09 487.33 175.7 491.11 183.12C494.89 190.54 500.14 196.28 506.86 200.34C513.72 204.26 521.56 206.22 530.38 206.22Z" fill="#5B7CE7"/>
<path d="M500.352 145.802C500.439 142.003 501.606 139.054 503.855 136.955C506.153 134.857 509.052 133.847 512.551 133.927C516.05 134.007 518.875 135.146 521.025 137.346C523.226 139.546 524.283 142.546 524.196 146.345C524.108 150.194 522.915 153.168 520.617 155.266C518.369 157.365 515.495 158.375 511.996 158.296C508.497 158.216 505.647 157.076 503.447 154.875C501.296 152.676 500.265 149.651 500.352 145.802ZM548.746 135.651L518.084 187.467L507.886 187.235L538.474 135.417L548.746 135.651ZM512.332 140.224C509.583 140.161 508.164 142.079 508.075 145.978C507.985 149.927 509.315 151.933 512.064 151.996C513.414 152.026 514.475 151.575 515.246 150.643C516.019 149.66 516.428 148.169 516.473 146.169C516.562 142.27 515.182 140.288 512.332 140.224ZM532.588 176.469C532.675 172.62 533.843 169.671 536.09 167.621C538.388 165.523 541.287 164.514 544.786 164.594C548.285 164.673 551.085 165.812 553.185 168.011C555.337 170.16 556.369 173.159 556.281 177.008C556.194 180.857 555.026 183.832 552.777 185.931C550.579 188.032 547.73 189.042 544.231 188.962C540.682 188.881 537.832 187.741 535.682 185.542C533.531 183.342 532.5 180.318 532.588 176.469ZM544.568 170.89C541.718 170.825 540.249 172.742 540.161 176.641C540.071 180.59 541.45 182.597 544.3 182.662C547.099 182.726 548.544 180.783 548.633 176.834C548.722 172.935 547.367 170.954 544.568 170.89Z" fill="#5B7CE7"/>
<line x1="593.789" y1="50.4166" x2="464.089" y2="269.895" stroke="#5B7CE7" stroke-width="9.5"/>
<line x1="571.976" y1="50.628" x2="614.986" y2="50.2501" stroke="#0E0E1E" stroke-width="5.5"/>
<line x1="440.009" y1="270" x2="483.02" y2="270.127" stroke="#0E0E1E" stroke-width="6"/>
</svg>
